<?xml version="1.0" encoding="UTF-8" standalone="no"?>
<!-- Created with Inkscape (http://www.inkscape.org/) -->

<svg
   xmlns:dc="http://purl.org/dc/elements/1.1/"
   xmlns:cc="http://creativecommons.org/ns#"
   xmlns:rdf="http://www.w3.org/1999/02/22-rdf-syntax-ns#"
   xmlns:svg="http://www.w3.org/2000/svg"
   xmlns="http://www.w3.org/2000/svg"
   xmlns:sodipodi="http://sodipodi.sourceforge.net/DTD/sodipodi-0.dtd"
   xmlns:inkscape="http://www.inkscape.org/namespaces/inkscape"
   width="1001.7961"
   height="901.34235"
   id="svg13178"
   version="1.1"
   inkscape:version="0.48.5 r10040"
   sodipodi:docname="mug.svg">
  <defs
     id="defs13180" />
  <sodipodi:namedview
     id="base"
     pagecolor="#ffffff"
     bordercolor="#666666"
     borderopacity="1.0"
     inkscape:pageopacity="0.0"
     inkscape:pageshadow="2"
     inkscape:zoom="0.7"
     inkscape:cx="768.98914"
     inkscape:cy="454.11365"
     inkscape:document-units="px"
     inkscape:current-layer="layer1"
     showgrid="false"
     inkscape:object-nodes="true"
     inkscape:snap-smooth-nodes="true"
     inkscape:snap-nodes="true"
     inkscape:window-width="1920"
     inkscape:window-height="980"
     inkscape:window-x="0"
     inkscape:window-y="28"
     inkscape:window-maximized="1"
     fit-margin-top="0"
     fit-margin-left="0"
     fit-margin-right="0"
     fit-margin-bottom="0"
     inkscape:snap-global="false" />
  <metadata
     id="metadata13183">
    <rdf:RDF>
      <cc:Work
         rdf:about="">
        <dc:format>image/svg+xml</dc:format>
        <dc:type
           rdf:resource="http://purl.org/dc/dcmitype/StillImage" />
        <dc:title />
      </cc:Work>
    </rdf:RDF>
  </metadata>
  <g
     inkscape:label="Layer 1"
     inkscape:groupmode="layer"
     id="layer1"
     transform="translate(72.176338,-224.32646)">
    <path
       style="fill:#b9f4ff;fill-opacity:1;stroke:none"
       d="m 132.60365,303.84976 0,-287.893478 12.12183,0 12.12183,0 0,142.936588 0,142.93658 -3.53554,0 c -1.94454,0 -3.53553,0.45457 -3.53553,1.01015 0,0.55559 1.59099,1.01016 3.53553,1.01016 l 3.53554,0 0,130.81475 0,130.81476 263.14473,0 263.14474,0 0,-274.7615 0,-274.761488 12.5984,0 12.5984,0 0.28105,13.889598 0.28104,13.889597 13.28165,0.655803 c 29.77403,1.470141 61.92907,9.133833 87.73361,20.910048 l 8.08122,3.687963 -5.05077,0.598915 -5.05076,0.598916 6.41828,0.158698 c 7.64285,0.188979 14.42376,3.418139 32.14988,15.310205 60.77334,40.771515 100.72628,106.761485 108.38005,179.010515 1.33465,12.59864 1.33465,39.50383 0,52.10247 -7.88823,74.46222 -50.56876,142.93641 -113.86146,182.6728 -7.37255,4.62862 -9.36766,5.4283 -13.54291,5.4283 -5.06752,0 -7.04417,1.95892 -2.11871,2.09971 4.48957,0.12832 -21.05299,12.1844 -36.94584,17.43842 -23.6398,7.8151 -43.26463,11.54256 -66.60437,12.65057 l -13.508,0.64126 0.0967,27.02158 0.0967,27.02158 -287.92361,0 -287.92362,0 0,-287.89347 z m 598.4244,202.94158 c 10.46781,-0.0514 18.7788,-0.49701 18.7788,-1.00677 0,-0.50295 -1.02278,-0.95351 -2.27284,-1.00124 -1.25007,-0.0477 2.52384,-1.13294 8.38648,-2.41159 21.38799,-4.66474 45.96017,-14.31142 65.45316,-25.69594 20.8804,-12.19481 47.1358,-35.65304 62.26699,-55.63326 28.8232,-38.06006 43.2397,-78.66996 44.6822,-125.86548 1.09387,-35.78902 -4.68664,-65.81148 -18.73152,-97.28672 C 888.38045,150.35576 846.9384,108.89267 799.38916,87.632215 786.4606,81.851535 766.85874,75.508717 753.91428,72.917347 c -7.82799,-1.567101 -9.00043,-2.027182 -6.56599,-2.5766 2.01416,-0.454566 0.69826,-0.700489 -4.10743,-0.767612 -3.88909,-0.05432 -13.32139,-0.380848 -20.96067,-0.725616 l -13.88959,-0.626852 0,219.250703 c 0,221.29632 0.004,221.56419 3.19202,219.78442 0.36665,-0.20469 9.1171,-0.41369 19.44543,-0.46445 z m 32.92094,-0.91107 c 0,-0.55559 -2.4733,-1.01016 -5.49622,-1.01016 -3.02293,0 -5.77717,0.45457 -6.12054,1.01016 -0.38997,0.63098 1.6731,1.01015 5.49622,1.01015 3.40692,0 6.12054,-0.44786 6.12054,-1.01015 z m 13.63706,0 c -0.34338,-0.55559 -2.8435,-1.01016 -5.55584,-1.01016 -2.71234,0 -5.21247,0.45457 -5.55584,1.01016 -0.39022,0.63138 1.69296,1.01015 5.55584,1.01015 3.86287,0 5.94606,-0.37877 5.55584,-1.01015 z m 14.14213,0 c -0.34337,-0.55559 -3.09761,-1.01016 -6.12053,-1.01016 -3.02293,0 -5.49622,0.45457 -5.49622,1.01016 0,0.56229 2.71361,1.01015 6.12053,1.01015 3.82313,0 5.88619,-0.37917 5.49622,-1.01015 z m 13.63706,0 c 0,-0.55559 -2.50013,-1.01016 -5.55584,-1.01016 -3.05571,0 -5.55584,0.45457 -5.55584,1.01016 0,0.55558 2.50013,1.01015 5.55584,1.01015 3.05571,0 5.55584,-0.45457 5.55584,-1.01015 z m 14.14214,0 c 0,-0.55559 -2.50013,-1.01016 -5.55584,-1.01016 -3.05571,0 -5.55584,0.45457 -5.55584,1.01016 0,0.55558 2.50013,1.01015 5.55584,1.01015 3.05571,0 5.55584,-0.45457 5.55584,-1.01015 z M 146.74578,302.8396 c 0,-0.55558 -2.50013,-1.01015 -5.55584,-1.01015 -3.05571,0 -5.55584,0.45457 -5.55584,1.01015 0,0.55559 2.50013,1.01016 5.55584,1.01016 3.05571,0 5.55584,-0.45457 5.55584,-1.01016 z M 761.17107,69.773779 c -1.80565,-0.224078 -4.76035,-0.224078 -6.566,0 -1.80564,0.224079 -0.32829,0.407417 3.283,0.407417 3.6113,0 5.08864,-0.183338 3.283,-0.407417 z m 14.14213,0 c -1.80565,-0.224078 -4.76034,-0.224078 -6.56599,0 -1.80565,0.224079 -0.3283,0.407417 3.283,0.407417 3.61129,0 5.08864,-0.183338 3.28299,-0.407417 z m 13.65515,0.009 c -1.5179,-0.230491 -4.24531,-0.235131 -6.06091,-0.0103 -1.8156,0.224821 -0.57368,0.413404 2.75983,0.419074 3.3335,0.0057 4.81899,-0.178275 3.30108,-0.408765 l 0,-5e-6 z m 14.14214,0 c -1.51791,-0.230491 -4.24532,-0.235131 -6.06092,-0.0103 -1.81559,0.224821 -0.57367,0.413404 2.75983,0.419074 3.3335,0.0057 4.81899,-0.178275 3.30109,-0.408765 l 0,-5e-6 z"
       id="path4847"
       inkscape:connector-curvature="0"
       transform="translate(-72.176338,224.32646)" />
    <path
       style="fill:none;stroke:#1c00ff;stroke-width:5;stroke-linecap:butt;stroke-linejoin:miter;stroke-miterlimit:4;stroke-opacity:1;stroke-dasharray:none"
       d="m 637.27999,266.96858 0,-28.09487 -28.08356,0 0,550.15433 -522.94643,0 0,-549.88014 -27.142857,0 0,578.21428 577.946427,0 0,-55.3125"
       id="path14662"
       inkscape:connector-curvature="0"
       sodipodi:nodetypes="ccccccc" />
    <path
       style="fill:none;stroke:#0d00ff;stroke-width:5;stroke-linecap:butt;stroke-linejoin:miter;stroke-miterlimit:4;stroke-opacity:1;stroke-dasharray:none"
       d="m 637.20982,293.88004 -1e-5,436.55843"
       id="path14664"
       inkscape:connector-curvature="0"
       sodipodi:nodetypes="cc" />
    <path
       sodipodi:type="arc"
       style="fill:none;stroke:#1500ff;stroke-width:6.52519751;stroke-linecap:round;stroke-linejoin:round;stroke-miterlimit:4;stroke-opacity:1;stroke-dasharray:none;stroke-dashoffset:0"
       id="path14666"
       sodipodi:cx="1196.0206"
       sodipodi:cy="571.52954"
       sodipodi:rx="284.86301"
       sodipodi:ry="284.86301"
       d="m 1480.8836,571.52954 c 0,157.3255 -127.5375,284.86301 -284.863,284.86301 -157.3255,0 -284.86298,-127.53751 -284.86298,-284.86301 0,0 0,-10e-6 0,-10e-6"
       transform="matrix(0,-0.76626032,0.76626032,0,199.26941,1428.6224)"
       sodipodi:start="0"
       sodipodi:end="3.1415927"
       sodipodi:open="true" />
    <path
       sodipodi:open="true"
       sodipodi:end="3.1415927"
       sodipodi:start="0"
       transform="matrix(0,-0.87087208,0.87087208,0,139.55087,1556.6288)"
       d="m 1480.8836,571.52954 c 0,157.3255 -127.5375,284.86301 -284.863,284.86301 -157.3255,0 -284.86298,-127.53751 -284.86298,-284.86301 0,0 0,-10e-6 0,-10e-6"
       sodipodi:ry="284.86301"
       sodipodi:rx="284.86301"
       sodipodi:cy="571.52954"
       sodipodi:cx="1196.0206"
       id="path15176"
       style="fill:none;stroke:#0600ff;stroke-width:5.74137115;stroke-linecap:round;stroke-linejoin:round;stroke-miterlimit:4;stroke-opacity:1;stroke-dasharray:none;stroke-dashoffset:0"
       sodipodi:type="arc" />
    <path
       style="fill:none;stroke:#000000;stroke-width:2;stroke-linecap:butt;stroke-linejoin:miter;stroke-miterlimit:4;stroke-opacity:1;stroke-dasharray:12, 2;stroke-dashoffset:0"
       d="m 59.107143,817.36218 -90.535714,0"
       id="path15180"
       inkscape:connector-curvature="0" />
    <path
       inkscape:connector-curvature="0"
       id="path15182"
       d="m 59.107143,239.1479 -90.535714,0"
       style="fill:none;stroke:#000000;stroke-width:2;stroke-linecap:butt;stroke-linejoin:miter;stroke-miterlimit:4;stroke-opacity:1;stroke-dasharray:12, 2;stroke-dashoffset:0" />
    <path
       style="fill:none;stroke:#000000;stroke-width:2;stroke-linecap:butt;stroke-linejoin:miter;stroke-miterlimit:4;stroke-opacity:1;stroke-dasharray:12, 2;stroke-dashoffset:0"
       d="m 59.285714,789.02804 -90.535714,0"
       id="path15184"
       inkscape:connector-curvature="0" />
    <path
       inkscape:connector-curvature="0"
       id="path15186"
       d="m 637.05357,817.36218 0,90.53571"
       style="fill:none;stroke:#000000;stroke-width:2;stroke-linecap:butt;stroke-linejoin:miter;stroke-miterlimit:4;stroke-opacity:1;stroke-dasharray:12, 2;stroke-dashoffset:0" />
    <path
       inkscape:connector-curvature="0"
       id="path15188"
       d="m 608.71943,817.18361 0,90.53571"
       style="fill:none;stroke:#000000;stroke-width:2;stroke-linecap:butt;stroke-linejoin:miter;stroke-miterlimit:4;stroke-opacity:1;stroke-dasharray:12, 2;stroke-dashoffset:0" />
    <path
       inkscape:connector-curvature="0"
       id="path15190"
       d="m 887.67614,763.06576 -250.64489,0"
       style="fill:none;stroke:#000000;stroke-width:2;stroke-linecap:butt;stroke-linejoin:miter;stroke-miterlimit:4;stroke-opacity:1;stroke-dasharray:12, 2;stroke-dashoffset:0"
       sodipodi:nodetypes="cc" />
    <path
       inkscape:connector-curvature="0"
       id="path15192"
       d="m 887.85471,730.43847 -250.64489,0"
       style="fill:none;stroke:#000000;stroke-width:2;stroke-linecap:butt;stroke-linejoin:miter;stroke-miterlimit:4;stroke-opacity:1;stroke-dasharray:12, 2;stroke-dashoffset:0"
       sodipodi:nodetypes="cc" />
    <path
       sodipodi:nodetypes="cc"
       style="fill:none;stroke:#000000;stroke-width:2;stroke-linecap:butt;stroke-linejoin:miter;stroke-miterlimit:4;stroke-opacity:1;stroke-dasharray:12, 2;stroke-dashoffset:0"
       d="m 887.74631,294.23873 -250.64489,0"
       id="path15194"
       inkscape:connector-curvature="0" />
    <path
       sodipodi:nodetypes="cc"
       style="fill:none;stroke:#000000;stroke-width:2;stroke-linecap:butt;stroke-linejoin:miter;stroke-miterlimit:4;stroke-opacity:1;stroke-dasharray:12, 2;stroke-dashoffset:0"
       d="m 887.92488,266.96858 -250.64489,0"
       id="path15196"
       inkscape:connector-curvature="0" />
    <path
       style="fill:none;stroke:#000000;stroke-width:1px;stroke-linecap:butt;stroke-linejoin:miter;stroke-opacity:1"
       d="m 88.893424,527.08286 519.218406,0"
       id="path15200"
       inkscape:connector-curvature="0" />
    <path
       style="fill:none;stroke:#000000;stroke-width:2;stroke-linecap:butt;stroke-linejoin:miter;stroke-miterlimit:4;stroke-opacity:1;stroke-dasharray:12, 2;stroke-dashoffset:0"
       d="m 89.107143,527.04137 -120.535714,0"
       id="path15204"
       inkscape:connector-curvature="0"
       sodipodi:nodetypes="cc" />
    <text
       xml:space="preserve"
       style="font-size:32px;font-style:normal;font-weight:normal;line-height:125%;letter-spacing:0px;word-spacing:0px;fill:#000000;fill-opacity:1;stroke:none;font-family:Sans"
       x="-74.285713"
       y="248.07646"
       id="text15206"
       sodipodi:linespacing="125%"><tspan
         sodipodi:role="line"
         id="tspan15208"
         x="-74.285713"
         y="248.07646">21</tspan></text>
    <text
       sodipodi:linespacing="125%"
       id="text15210"
       y="535.2193"
       x="-74.285713"
       style="font-size:32px;font-style:normal;font-weight:normal;line-height:125%;letter-spacing:0px;word-spacing:0px;fill:#000000;fill-opacity:1;stroke:none;font-family:Sans"
       xml:space="preserve"><tspan
         y="535.2193"
         x="-74.285713"
         id="tspan15212"
         sodipodi:role="line">10</tspan></text>
    <text
       xml:space="preserve"
       style="font-size:32px;font-style:normal;font-weight:normal;line-height:125%;letter-spacing:0px;word-spacing:0px;fill:#000000;fill-opacity:1;stroke:none;font-family:Sans"
       x="-74.285713"
       y="796.64789"
       id="text15214"
       sodipodi:linespacing="125%"><tspan
         sodipodi:role="line"
         id="tspan15216"
         x="-74.285713"
         y="796.64789">1</tspan></text>
    <text
       sodipodi:linespacing="125%"
       id="text15218"
       y="826.64789"
       x="-74.285713"
       style="font-size:32px;font-style:normal;font-weight:normal;line-height:125%;letter-spacing:0px;word-spacing:0px;fill:#000000;fill-opacity:1;stroke:none;font-family:Sans"
       xml:space="preserve"><tspan
         y="826.64789"
         x="-74.285713"
         id="tspan15220"
         sodipodi:role="line">0</tspan></text>
    <path
       style="fill:none;stroke:#000000;stroke-width:2;stroke-linecap:butt;stroke-linejoin:miter;stroke-miterlimit:4;stroke-opacity:1;stroke-dasharray:12, 2;stroke-dashoffset:0"
       d="m 89.910713,817.36218 0,90.53571"
       id="path15222"
       inkscape:connector-curvature="0" />
    <path
       style="fill:none;stroke:#000000;stroke-width:2;stroke-linecap:butt;stroke-linejoin:miter;stroke-miterlimit:4;stroke-opacity:1;stroke-dasharray:12, 2;stroke-dashoffset:0"
       d="m 61.576573,817.18361 0,90.53571"
       id="path15224"
       inkscape:connector-curvature="0" />
    <text
       xml:space="preserve"
       style="font-size:32px;font-style:normal;font-weight:normal;line-height:125%;letter-spacing:0px;word-spacing:0px;fill:#000000;fill-opacity:1;stroke:none;font-family:Sans"
       x="51.428574"
       y="938.07648"
       id="text15226"
       sodipodi:linespacing="125%"><tspan
         sodipodi:role="line"
         id="tspan15228"
         x="51.428574"
         y="938.07648">0</tspan></text>
    <text
       sodipodi:linespacing="125%"
       id="text15230"
       y="938.0921"
       x="82.857147"
       style="font-size:32px;font-style:normal;font-weight:normal;line-height:125%;letter-spacing:0px;word-spacing:0px;fill:#000000;fill-opacity:1;stroke:none;font-family:Sans"
       xml:space="preserve"><tspan
         y="938.0921"
         x="82.857147"
         id="tspan15232"
         sodipodi:role="line">1</tspan></text>
    <text
       sodipodi:linespacing="125%"
       id="text15234"
       y="938.07648"
       x="571.7157"
       style="font-size:32px;font-style:normal;font-weight:normal;line-height:125%;letter-spacing:0px;word-spacing:0px;fill:#000000;fill-opacity:1;stroke:none;font-family:Sans"
       xml:space="preserve"><tspan
         y="938.07648"
         x="571.7157"
         id="tspan15236"
         sodipodi:role="line">20</tspan></text>
    <text
       xml:space="preserve"
       style="font-size:32px;font-style:normal;font-weight:normal;line-height:125%;letter-spacing:0px;word-spacing:0px;fill:#000000;fill-opacity:1;stroke:none;font-family:Sans"
       x="631.42859"
       y="938.0921"
       id="text15238"
       sodipodi:linespacing="125%"><tspan
         sodipodi:role="line"
         id="tspan15240"
         x="631.42859"
         y="938.0921">21</tspan></text>
    <text
       sodipodi:linespacing="125%"
       id="text15242"
       y="743.39514"
       x="898.15326"
       style="font-size:32px;font-style:normal;font-weight:normal;line-height:125%;letter-spacing:0px;word-spacing:0px;fill:#000000;fill-opacity:1;stroke:none;font-family:Sans"
       xml:space="preserve"><tspan
         y="743.39514"
         x="898.15326"
         id="tspan15244"
         sodipodi:role="line">3</tspan></text>
    <text
       xml:space="preserve"
       style="font-size:32px;font-style:normal;font-weight:normal;line-height:125%;letter-spacing:0px;word-spacing:0px;fill:#000000;fill-opacity:1;stroke:none;font-family:Sans"
       x="898.15326"
       y="773.39514"
       id="text15246"
       sodipodi:linespacing="125%"><tspan
         sodipodi:role="line"
         id="tspan15248"
         x="898.15326"
         y="773.39514">2</tspan></text>
    <text
       xml:space="preserve"
       style="font-size:32px;font-style:normal;font-weight:normal;line-height:125%;letter-spacing:0px;word-spacing:0px;fill:#000000;fill-opacity:1;stroke:none;font-family:Sans"
       x="891.01038"
       y="275.53799"
       id="text15269"
       sodipodi:linespacing="125%"><tspan
         sodipodi:role="line"
         id="tspan15271"
         x="891.01038"
         y="275.53799">20</tspan></text>
    <text
       sodipodi:linespacing="125%"
       id="text15273"
       y="305.53799"
       x="891.01038"
       style="font-size:32px;font-style:normal;font-weight:normal;line-height:125%;letter-spacing:0px;word-spacing:0px;fill:#000000;fill-opacity:1;stroke:none;font-family:Sans"
       xml:space="preserve"><tspan
         y="305.53799"
         x="891.01038"
         id="tspan15275"
         sodipodi:role="line">19</tspan></text>
    <path
       style="fill:none;stroke:#ff0000;stroke-width:5;stroke-linecap:butt;stroke-linejoin:miter;stroke-miterlimit:4;stroke-opacity:1;stroke-dasharray:none"
       d="m 158.55449,302.88953 -1.70718,262.58974 524.52546,-0.77769 -0.0744,-262.19772"
       id="path5357"
       inkscape:connector-curvature="0"
       transform="translate(-72.176338,224.32646)"
       sodipodi:nodetypes="cccc" />
    <rect
       style="fill:#ff0004;fill-opacity:1;stroke:none;display:inline"
       id="rect4610"
       width="44.446712"
       height="15.152288"
       x="158.06233"
       y="1024.2004" />
    <text
       xml:space="preserve"
       style="font-size:32px;font-style:normal;font-weight:normal;line-height:125%;letter-spacing:0px;word-spacing:0px;fill:#000000;fill-opacity:1;stroke:none;display:inline;font-family:Sans"
       x="227.76289"
       y="1042.3832"
       id="text4612"
       sodipodi:linespacing="125%"><tspan
         sodipodi:role="line"
         id="tspan4614"
         x="227.76289"
         y="1042.3832">Dirichlet condition</tspan></text>
    <rect
       y="1067.637"
       x="158.06233"
       height="15.152288"
       width="44.446712"
       id="rect4616"
       style="fill:#0c00ff;fill-opacity:1;stroke:none;display:inline" />
    <text
       sodipodi:linespacing="125%"
       id="text4618"
       y="1085.8197"
       x="227.76289"
       style="font-size:32px;font-style:normal;font-weight:normal;line-height:125%;letter-spacing:0px;word-spacing:0px;fill:#000000;fill-opacity:1;stroke:none;display:inline;font-family:Sans"
       xml:space="preserve"><tspan
         y="1085.8197"
         x="227.76289"
         id="tspan4620"
         sodipodi:role="line">Neumann condition</tspan></text>
    <rect
       style="fill:#000000;fill-opacity:1;stroke:none;display:inline"
       id="rect4622"
       width="44.446712"
       height="15.152288"
       x="158.06233"
       y="1107.033" />
    <text
       xml:space="preserve"
       style="font-size:32px;font-style:normal;font-weight:normal;line-height:125%;letter-spacing:0px;word-spacing:0px;fill:#000000;fill-opacity:1;stroke:none;display:inline;font-family:Sans"
       x="227.76289"
       y="1125.2157"
       id="text4624"
       sodipodi:linespacing="125%"><tspan
         sodipodi:role="line"
         id="tspan4626"
         x="227.76289"
         y="1125.2157">Null Neumann condition</tspan></text>
  </g>
</svg>
